<svg width="80" height="80" xmlns="http://www.w3.org/2000/svg">

 <g>
  <title>Layer 1</title>
  <path transform="rotate(90 43 40)" stroke-width="0" stroke-dasharray="5,2,2,2" id="svg_6" d="m43.17446,13c-0.712,0 -1.34545,0.23165 -1.87993,0.65184c-0.53402,0.41985 -0.97574,1.02145 -1.3433,1.7728c-0.73503,1.50247 -1.18717,3.61311 -1.43449,6.14079c-0.24683,2.52282 -0.28843,5.46041 -0.18588,8.60504c-8.79491,2.85964 -26.63263,8.76402 -28.06555,10.08234c-1.90777,1.7552 -1.29137,3.76676 -0.52259,5.10211l29.32467,-4.7305c0.61986,6.16465 1.50121,12.27041 2.26923,17.05474c-2.86778,0.66521 -8.22098,1.97869 -9.32595,2.7932c-1.52219,1.12205 -1.52218,4.7457 -1.52218,4.7457l12.00204,-0.77368c0.28267,1.56197 0.45945,2.47337 0.45945,2.47337l0.01754,0.08224l0.0947,0l0.22096,0l0.0947,0l0.01754,-0.08224c0,0 0.17644,-0.91142 0.45945,-2.47337l12.00555,0.77368c0,0 0.00001,-3.62365 -1.52218,-4.7457c-1.10538,-0.81482 -6.4625,-2.13128 -9.32946,-2.79627c0.76644,-4.76965 1.64623,-10.85204 2.26573,-16.99683l28.98097,4.67566c0.76877,-1.33535 1.38869,-3.34691 -0.51908,-5.10211c-1.4152,-1.30201 -18.82189,-7.07507 -27.72534,-9.9727c0.10638,-3.18539 0.06728,-6.16301 -0.18238,-8.71468l0,-0.00609c-0.24745,-2.52489 -0.70007,-4.63347 -1.43449,-6.1347c-0.36746,-0.75113 -0.80558,-1.3528 -1.33979,-1.7728c-0.53448,-0.42019 -1.16793,-0.65184 -1.87992,-0.65184l-0.00001,0z" stroke="#000" fill="#4C261D"/>
 </g>
</svg>